<?xml version="1.0" standalone="no"?>
<!DOCTYPE svg PUBLIC "-//W3C//DTD SVG 20010904//EN"
 "http://www.w3.org/TR/2001/REC-SVG-20010904/DTD/svg10.dtd">
<svg version="1.0" xmlns="http://www.w3.org/2000/svg"
 width="1024.000000pt" height="1024.000000pt" viewBox="0 0 1024.000000 1024.000000"
 preserveAspectRatio="xMidYMid meet">
<metadata>
Created by potrace 1.14, written by Peter Selinger 2001-2017
</metadata>
<g transform="translate(0.000000,1024.000000) scale(0.100000,-0.100000)"
fill="#000000" stroke="none">
<path d="M1939 9450 c-318 -77 -562 -342 -612 -666 -18 -113 -15 -7263 2
-7344 7 -30 14 -66 17 -79 19 -93 117 -256 209 -347 130 -128 273 -202 445
-230 25 -4 1307 -8 2850 -8 2986 0 2853 -2 2995 47 134 46 266 143 366 267 50
63 75 106 109 191 54 131 60 195 60 683 l0 441 193 0 c161 1 201 4 240 19 56
21 91 64 104 126 11 55 10 761 -1 810 -12 52 -44 90 -93 112 -38 17 -69 19
-243 20 l-200 1 0 543 0 543 208 3 c245 4 269 11 312 93 l25 49 -1 400 c0 386
-1 402 -21 441 -47 91 -82 101 -330 100 l-193 0 0 543 c0 509 1 542 18 542 9
1 100 2 202 4 205 3 236 10 283 65 14 17 30 48 34 69 4 20 7 208 7 417 0 337
-2 386 -17 426 -35 92 -87 109 -339 109 l-188 0 0 433 c-1 472 -2 510 -31 609
-26 90 -53 146 -121 253 -7 11 -45 52 -84 91 -119 121 -253 195 -416 228 -70
15 -359 16 -2895 15 -2696 -1 -2821 -2 -2894 -19z m3071 -2164 c340 -58 643
-279 802 -584 84 -161 120 -311 119 -497 0 -225 -60 -417 -186 -603 -42 -62
-165 -191 -234 -245 -199 -158 -402 -230 -656 -231 -307 -1 -549 100 -771 323
-149 149 -257 339 -293 512 -6 30 -14 65 -17 79 -3 14 -7 79 -8 145 -7 320
101 575 340 806 220 212 466 309 764 303 58 -1 121 -5 140 -8z m-774 -2731
c311 -118 682 -141 1009 -63 44 10 88 21 98 23 10 2 56 18 103 35 84 31 88 32
217 26 73 -3 143 -8 157 -11 14 -2 50 -10 80 -16 313 -62 618 -287 753 -555
82 -162 96 -244 94 -554 -2 -239 -3 -246 -27 -293 -46 -91 -143 -162 -256
-187 -35 -8 -504 -11 -1614 -11 -861 0 -1576 2 -1590 4 -108 17 -211 79 -266
162 -39 58 -47 107 -48 297 -2 304 14 405 83 553 148 317 517 570 876 602 33
3 61 6 62 7 2 1 47 3 101 5 85 2 108 -2 168 -24z"/>
</g>
</svg>
